<?xml version="1.0" standalone="no"?>
<!DOCTYPE svg PUBLIC "-//W3C//DTD SVG 20010904//EN"
 "http://www.w3.org/TR/2001/REC-SVG-20010904/DTD/svg10.dtd">
<svg version="1.0" xmlns="http://www.w3.org/2000/svg"
 width="16.000000pt" height="16.000000pt" viewBox="0 0 16.000000 16.000000"
 preserveAspectRatio="xMidYMid meet">
<metadata>
Created by potrace 1.11, written by Peter Selinger 2001-2013
</metadata>
<g transform="translate(0.000000,16.000000) scale(0.002286,-0.002286)"
fill="#000000" stroke="none">
<path d="M3360 6609 c-69 -4 -147 -9 -175 -13 -459 -59 -845 -185 -1207 -394
-285 -165 -582 -406 -777 -631 -25 -29 -55 -63 -65 -75 -37 -41 -169 -221
-222 -303 -190 -291 -352 -677 -419 -998 -9 -44 -19 -89 -21 -100 -2 -11 -9
-51 -15 -90 -6 -38 -12 -81 -15 -95 -20 -117 -27 -548 -11 -704 52 -526 243
-1040 549 -1476 83 -118 81 -116 199 -254 414 -485 1008 -842 1640 -986 271
-62 399 -75 724 -74 261 0 379 10 575 50 343 69 681 197 963 366 538 321 930
736 1209 1283 141 276 254 633 297 935 36 255 43 429 26 688 -3 56 -8 110 -9
120 -2 9 -7 42 -10 72 -28 223 -107 521 -199 745 -289 703 -802 1261 -1472
1600 -165 83 -184 92 -320 143 -280 105 -598 172 -890 187 -182 10 -224 10
-355 4z"/>
</g>
</svg>
